<?xml version="1.0" encoding="UTF-8" standalone="no"?>
<!DOCTYPE svg PUBLIC "-//W3C//DTD SVG 1.1//EN"
 "http://www.w3.org/Graphics/SVG/1.1/DTD/svg11.dtd">
<!-- Generated by graphviz version 7.1.0 (20230121.1956)
 -->
<!-- Title: snakemake_dag Pages: 1 -->
<svg width="292pt" height="692pt"
 viewBox="0.00 0.00 292.00 692.00" xmlns="http://www.w3.org/2000/svg" xmlns:xlink="http://www.w3.org/1999/xlink">
<g id="graph0" class="graph" transform="scale(1 1) rotate(0) translate(4 688)">
<title>snakemake_dag</title>
<polygon fill="white" stroke="none" points="-4,4 -4,-688 288,-688 288,4 -4,4"/>
<!-- 0 -->
<g id="node1" class="node">
<title>0</title>
<path fill="none" stroke="#d8b456" stroke-width="2" d="M160.5,-36C160.5,-36 130.5,-36 130.5,-36 124.5,-36 118.5,-30 118.5,-24 118.5,-24 118.5,-12 118.5,-12 118.5,-6 124.5,0 130.5,0 130.5,0 160.5,0 160.5,0 166.5,0 172.5,-6 172.5,-12 172.5,-12 172.5,-24 172.5,-24 172.5,-30 166.5,-36 160.5,-36"/>
<text text-anchor="middle" x="145.5" y="-15.5" font-family="sans" font-size="10.00">all</text>
</g>
<!-- 1 -->
<g id="node2" class="node">
<title>1</title>
<path fill="none" stroke="#567bd8" stroke-width="2" d="M160.5,-108C160.5,-108 130.5,-108 130.5,-108 124.5,-108 118.5,-102 118.5,-96 118.5,-96 118.5,-84 118.5,-84 118.5,-78 124.5,-72 130.5,-72 130.5,-72 160.5,-72 160.5,-72 166.5,-72 172.5,-78 172.5,-84 172.5,-84 172.5,-96 172.5,-96 172.5,-102 166.5,-108 160.5,-108"/>
<text text-anchor="middle" x="145.5" y="-87.5" font-family="sans" font-size="10.00">macs2</text>
</g>
<!-- 1&#45;&gt;0 -->
<g id="edge3" class="edge">
<title>1&#45;&gt;0</title>
<path fill="none" stroke="grey" stroke-width="2" d="M145.5,-71.34C145.5,-64.75 145.5,-57.08 145.5,-49.67"/>
<polygon fill="grey" stroke="grey" stroke-width="2" points="149,-49.93 145.5,-39.93 142,-49.93 149,-49.93"/>
</g>
<!-- 2 -->
<g id="node3" class="node">
<title>2</title>
<path fill="none" stroke="#56d89a" stroke-width="2" d="M183,-252C183,-252 136,-252 136,-252 130,-252 124,-246 124,-240 124,-240 124,-228 124,-228 124,-222 130,-216 136,-216 136,-216 183,-216 183,-216 189,-216 195,-222 195,-228 195,-228 195,-240 195,-240 195,-246 189,-252 183,-252"/>
<text text-anchor="middle" x="159.5" y="-231.5" font-family="sans" font-size="10.00">re_sort_bam</text>
</g>
<!-- 2&#45;&gt;1 -->
<g id="edge4" class="edge">
<title>2&#45;&gt;1</title>
<path fill="none" stroke="grey" stroke-width="2" d="M157.73,-215.02C155.41,-191.54 151.33,-150.11 148.52,-121.64"/>
<polygon fill="grey" stroke="grey" stroke-width="2" points="152.02,-121.46 147.56,-111.85 145.05,-122.15 152.02,-121.46"/>
</g>
<!-- 9 -->
<g id="node10" class="node">
<title>9</title>
<path fill="none" stroke="#d89556" stroke-width="2" d="M272,-108C272,-108 203,-108 203,-108 197,-108 191,-102 191,-96 191,-96 191,-84 191,-84 191,-78 197,-72 203,-72 203,-72 272,-72 272,-72 278,-72 284,-78 284,-84 284,-84 284,-96 284,-96 284,-102 278,-108 272,-108"/>
<text text-anchor="middle" x="237.5" y="-87.5" font-family="sans" font-size="10.00">bamcoverage_bw</text>
</g>
<!-- 2&#45;&gt;9 -->
<g id="edge11" class="edge">
<title>2&#45;&gt;9</title>
<path fill="none" stroke="grey" stroke-width="2" d="M169.38,-215.02C182.51,-191.12 205.86,-148.59 221.52,-120.1"/>
<polygon fill="grey" stroke="grey" stroke-width="2" points="224.5,-121.94 226.24,-111.49 218.36,-118.57 224.5,-121.94"/>
</g>
<!-- 12 -->
<g id="node13" class="node">
<title>12</title>
<path fill="none" stroke="#56d8d8" stroke-width="2" d="M119.5,-180C119.5,-180 89.5,-180 89.5,-180 83.5,-180 77.5,-174 77.5,-168 77.5,-168 77.5,-156 77.5,-156 77.5,-150 83.5,-144 89.5,-144 89.5,-144 119.5,-144 119.5,-144 125.5,-144 131.5,-150 131.5,-156 131.5,-156 131.5,-168 131.5,-168 131.5,-174 125.5,-180 119.5,-180"/>
<text text-anchor="middle" x="104.5" y="-159.5" font-family="sans" font-size="10.00">flagstat</text>
</g>
<!-- 2&#45;&gt;12 -->
<g id="edge14" class="edge">
<title>2&#45;&gt;12</title>
<path fill="none" stroke="grey" stroke-width="2" d="M145.62,-215.34C139.8,-207.93 132.9,-199.14 126.42,-190.9"/>
<polygon fill="grey" stroke="grey" stroke-width="2" points="129.37,-188.98 120.44,-183.28 123.86,-193.31 129.37,-188.98"/>
</g>
<!-- 3 -->
<g id="node4" class="node">
<title>3</title>
<path fill="none" stroke="#59d856" stroke-width="2" d="M177,-324C177,-324 142,-324 142,-324 136,-324 130,-318 130,-312 130,-312 130,-300 130,-300 130,-294 136,-288 142,-288 142,-288 177,-288 177,-288 183,-288 189,-294 189,-300 189,-300 189,-312 189,-312 189,-318 183,-324 177,-324"/>
<text text-anchor="middle" x="159.5" y="-303.5" font-family="sans" font-size="10.00">filter_bam</text>
</g>
<!-- 3&#45;&gt;2 -->
<g id="edge5" class="edge">
<title>3&#45;&gt;2</title>
<path fill="none" stroke="grey" stroke-width="2" d="M159.5,-287.34C159.5,-280.75 159.5,-273.08 159.5,-265.67"/>
<polygon fill="grey" stroke="grey" stroke-width="2" points="163,-265.93 159.5,-255.93 156,-265.93 163,-265.93"/>
</g>
<!-- 4 -->
<g id="node5" class="node">
<title>4</title>
<path fill="none" stroke="#d85656" stroke-width="2" d="M207,-396C207,-396 112,-396 112,-396 106,-396 100,-390 100,-384 100,-384 100,-372 100,-372 100,-366 106,-360 112,-360 112,-360 207,-360 207,-360 213,-360 219,-366 219,-372 219,-372 219,-384 219,-384 219,-390 213,-396 207,-396"/>
<text text-anchor="middle" x="159.5" y="-375.5" font-family="sans" font-size="10.00">remove_blacklist_reads</text>
</g>
<!-- 4&#45;&gt;3 -->
<g id="edge6" class="edge">
<title>4&#45;&gt;3</title>
<path fill="none" stroke="grey" stroke-width="2" d="M159.5,-359.34C159.5,-352.75 159.5,-345.08 159.5,-337.67"/>
<polygon fill="grey" stroke="grey" stroke-width="2" points="163,-337.93 159.5,-327.93 156,-337.93 163,-337.93"/>
</g>
<!-- 5 -->
<g id="node6" class="node">
<title>5</title>
<path fill="none" stroke="#78d856" stroke-width="2" d="M174.5,-468C174.5,-468 144.5,-468 144.5,-468 138.5,-468 132.5,-462 132.5,-456 132.5,-456 132.5,-444 132.5,-444 132.5,-438 138.5,-432 144.5,-432 144.5,-432 174.5,-432 174.5,-432 180.5,-432 186.5,-438 186.5,-444 186.5,-444 186.5,-456 186.5,-456 186.5,-462 180.5,-468 174.5,-468"/>
<text text-anchor="middle" x="159.5" y="-447.5" font-family="sans" font-size="10.00">remdup</text>
</g>
<!-- 5&#45;&gt;4 -->
<g id="edge7" class="edge">
<title>5&#45;&gt;4</title>
<path fill="none" stroke="grey" stroke-width="2" d="M159.5,-431.34C159.5,-424.75 159.5,-417.08 159.5,-409.67"/>
<polygon fill="grey" stroke="grey" stroke-width="2" points="163,-409.93 159.5,-399.93 156,-409.93 163,-409.93"/>
</g>
<!-- 6 -->
<g id="node7" class="node">
<title>6</title>
<path fill="none" stroke="#97d856" stroke-width="2" d="M174.5,-540C174.5,-540 144.5,-540 144.5,-540 138.5,-540 132.5,-534 132.5,-528 132.5,-528 132.5,-516 132.5,-516 132.5,-510 138.5,-504 144.5,-504 144.5,-504 174.5,-504 174.5,-504 180.5,-504 186.5,-510 186.5,-516 186.5,-516 186.5,-528 186.5,-528 186.5,-534 180.5,-540 174.5,-540"/>
<text text-anchor="middle" x="159.5" y="-519.5" font-family="sans" font-size="10.00">sortbam</text>
</g>
<!-- 6&#45;&gt;5 -->
<g id="edge8" class="edge">
<title>6&#45;&gt;5</title>
<path fill="none" stroke="grey" stroke-width="2" d="M159.5,-503.34C159.5,-496.75 159.5,-489.08 159.5,-481.67"/>
<polygon fill="grey" stroke="grey" stroke-width="2" points="163,-481.93 159.5,-471.93 156,-481.93 163,-481.93"/>
</g>
<!-- 7 -->
<g id="node8" class="node">
<title>7</title>
<path fill="none" stroke="#b6d856" stroke-width="2" d="M174.5,-612C174.5,-612 144.5,-612 144.5,-612 138.5,-612 132.5,-606 132.5,-600 132.5,-600 132.5,-588 132.5,-588 132.5,-582 138.5,-576 144.5,-576 144.5,-576 174.5,-576 174.5,-576 180.5,-576 186.5,-582 186.5,-588 186.5,-588 186.5,-600 186.5,-600 186.5,-606 180.5,-612 174.5,-612"/>
<text text-anchor="middle" x="159.5" y="-591.5" font-family="sans" font-size="10.00">bowtie2</text>
</g>
<!-- 7&#45;&gt;6 -->
<g id="edge9" class="edge">
<title>7&#45;&gt;6</title>
<path fill="none" stroke="grey" stroke-width="2" d="M159.5,-575.34C159.5,-568.75 159.5,-561.08 159.5,-553.67"/>
<polygon fill="grey" stroke="grey" stroke-width="2" points="163,-553.93 159.5,-543.93 156,-553.93 163,-553.93"/>
</g>
<!-- 8 -->
<g id="node9" class="node">
<title>8</title>
<path fill="none" stroke="#56b9d8" stroke-width="2" d="M185,-684C185,-684 134,-684 134,-684 128,-684 122,-678 122,-672 122,-672 122,-660 122,-660 122,-654 128,-648 134,-648 134,-648 185,-648 185,-648 191,-648 197,-654 197,-660 197,-660 197,-672 197,-672 197,-678 191,-684 185,-684"/>
<text text-anchor="middle" x="159.5" y="-663.5" font-family="sans" font-size="10.00">trimgalore_pe</text>
</g>
<!-- 8&#45;&gt;7 -->
<g id="edge10" class="edge">
<title>8&#45;&gt;7</title>
<path fill="none" stroke="grey" stroke-width="2" d="M159.5,-647.34C159.5,-640.75 159.5,-633.08 159.5,-625.67"/>
<polygon fill="grey" stroke="grey" stroke-width="2" points="163,-625.93 159.5,-615.93 156,-625.93 163,-625.93"/>
</g>
<!-- 9&#45;&gt;0 -->
<g id="edge1" class="edge">
<title>9&#45;&gt;0</title>
<path fill="none" stroke="grey" stroke-width="2" d="M214.28,-71.34C203.69,-63.27 190.93,-53.57 179.3,-44.72"/>
<polygon fill="grey" stroke="grey" stroke-width="2" points="181.51,-42 171.44,-38.73 177.28,-47.58 181.51,-42"/>
</g>
<!-- 10 -->
<g id="node11" class="node">
<title>10</title>
<path fill="none" stroke="#569ad8" stroke-width="2" d="M88.5,-108C88.5,-108 58.5,-108 58.5,-108 52.5,-108 46.5,-102 46.5,-96 46.5,-96 46.5,-84 46.5,-84 46.5,-78 52.5,-72 58.5,-72 58.5,-72 88.5,-72 88.5,-72 94.5,-72 100.5,-78 100.5,-84 100.5,-84 100.5,-96 100.5,-96 100.5,-102 94.5,-108 88.5,-108"/>
<text text-anchor="middle" x="73.5" y="-87.5" font-family="sans" font-size="10.00">multiqc</text>
</g>
<!-- 10&#45;&gt;0 -->
<g id="edge2" class="edge">
<title>10&#45;&gt;0</title>
<path fill="none" stroke="grey" stroke-width="2" d="M91.67,-71.34C99.62,-63.6 109.13,-54.36 117.93,-45.81"/>
<polygon fill="grey" stroke="grey" stroke-width="2" points="120.19,-48.49 124.92,-39.01 115.31,-43.47 120.19,-48.49"/>
</g>
<!-- 11 -->
<g id="node12" class="node">
<title>11</title>
<path fill="none" stroke="#d87556" stroke-width="2" d="M47,-180C47,-180 12,-180 12,-180 6,-180 0,-174 0,-168 0,-168 0,-156 0,-156 0,-150 6,-144 12,-144 12,-144 47,-144 47,-144 53,-144 59,-150 59,-156 59,-156 59,-168 59,-168 59,-174 53,-180 47,-180"/>
<text text-anchor="middle" x="29.5" y="-159.5" font-family="sans" font-size="10.00">fastqc_pe</text>
</g>
<!-- 11&#45;&gt;10 -->
<g id="edge12" class="edge">
<title>11&#45;&gt;10</title>
<path fill="none" stroke="grey" stroke-width="2" d="M40.6,-143.34C45.1,-136.18 50.41,-127.73 55.44,-119.73"/>
<polygon fill="grey" stroke="grey" stroke-width="2" points="58.28,-121.79 60.64,-111.46 52.35,-118.07 58.28,-121.79"/>
</g>
<!-- 12&#45;&gt;10 -->
<g id="edge13" class="edge">
<title>12&#45;&gt;10</title>
<path fill="none" stroke="grey" stroke-width="2" d="M96.68,-143.34C93.62,-136.43 90.02,-128.31 86.59,-120.56"/>
<polygon fill="grey" stroke="grey" stroke-width="2" points="89.9,-119.4 82.65,-111.67 83.5,-122.23 89.9,-119.4"/>
</g>
</g>
</svg>
