<?xml version="1.0" encoding="UTF-8" standalone="no"?>
<!DOCTYPE svg PUBLIC "-//W3C//DTD SVG 1.1//EN"
 "http://www.w3.org/Graphics/SVG/1.1/DTD/svg11.dtd">
<!-- Generated by graphviz version 7.1.0 (20230121.1956)
 -->
<!-- Title: snakemake_dag Pages: 1 -->
<svg width="701pt" height="697pt"
 viewBox="0.00 0.00 701.00 697.00" xmlns="http://www.w3.org/2000/svg" xmlns:xlink="http://www.w3.org/1999/xlink">
<g id="graph0" class="graph" transform="scale(1 1) rotate(0) translate(4 693)">
<title>snakemake_dag</title>
<polygon fill="white" stroke="none" points="-4,4 -4,-693 697,-693 697,4 -4,4"/>
<!-- 0 -->
<g id="node1" class="node">
<title>0</title>
<path fill="none" stroke="#56b9d8" stroke-width="2" d="M503.5,-36C503.5,-36 473.5,-36 473.5,-36 467.5,-36 461.5,-30 461.5,-24 461.5,-24 461.5,-12 461.5,-12 461.5,-6 467.5,0 473.5,0 473.5,0 503.5,0 503.5,0 509.5,0 515.5,-6 515.5,-12 515.5,-12 515.5,-24 515.5,-24 515.5,-30 509.5,-36 503.5,-36"/>
<text text-anchor="middle" x="488.5" y="-15.5" font-family="sans" font-size="10.00">all</text>
</g>
<!-- 1 -->
<g id="node2" class="node">
<title>1</title>
<path fill="none" stroke="#97d856" stroke-width="2" d="M333.5,-108C333.5,-108 303.5,-108 303.5,-108 297.5,-108 291.5,-102 291.5,-96 291.5,-96 291.5,-84 291.5,-84 291.5,-78 297.5,-72 303.5,-72 303.5,-72 333.5,-72 333.5,-72 339.5,-72 345.5,-78 345.5,-84 345.5,-84 345.5,-96 345.5,-96 345.5,-102 339.5,-108 333.5,-108"/>
<text text-anchor="middle" x="318.5" y="-87.5" font-family="sans" font-size="10.00">multiqc</text>
</g>
<!-- 1&#45;&gt;0 -->
<g id="edge1" class="edge">
<title>1&#45;&gt;0</title>
<path fill="none" stroke="grey" stroke-width="2" d="M346.19,-77.6C374.02,-66.14 417.18,-48.37 448.67,-35.4"/>
<polygon fill="grey" stroke="grey" stroke-width="2" points="449.82,-38.71 457.74,-31.67 447.16,-32.24 449.82,-38.71"/>
</g>
<!-- 2 -->
<g id="node3" class="node">
<title>2</title>
<path fill="none" stroke="#d8b456" stroke-width="2" d="M406.5,-182.5C406.5,-182.5 334.5,-182.5 334.5,-182.5 328.5,-182.5 322.5,-176.5 322.5,-170.5 322.5,-170.5 322.5,-158.5 322.5,-158.5 322.5,-152.5 328.5,-146.5 334.5,-146.5 334.5,-146.5 406.5,-146.5 406.5,-146.5 412.5,-146.5 418.5,-152.5 418.5,-158.5 418.5,-158.5 418.5,-170.5 418.5,-170.5 418.5,-176.5 412.5,-182.5 406.5,-182.5"/>
<text text-anchor="middle" x="370.5" y="-167.5" font-family="sans" font-size="10.00">fastqc_se</text>
<text text-anchor="middle" x="370.5" y="-156.5" font-family="sans" font-size="10.00">se_sample: input1</text>
</g>
<!-- 2&#45;&gt;1 -->
<g id="edge5" class="edge">
<title>2&#45;&gt;1</title>
<path fill="none" stroke="grey" stroke-width="2" d="M357.65,-145.58C351.96,-137.65 345.13,-128.13 338.78,-119.28"/>
<polygon fill="grey" stroke="grey" stroke-width="2" points="341.82,-117.51 333.15,-111.43 336.13,-121.59 341.82,-117.51"/>
</g>
<!-- 3 -->
<g id="node4" class="node">
<title>3</title>
<path fill="none" stroke="#567bd8" stroke-width="2" d="M95,-185C95,-185 12,-185 12,-185 6,-185 0,-179 0,-173 0,-173 0,-156 0,-156 0,-150 6,-144 12,-144 12,-144 95,-144 95,-144 101,-144 107,-150 107,-156 107,-156 107,-173 107,-173 107,-179 101,-185 95,-185"/>
<text text-anchor="middle" x="53.5" y="-173" font-family="sans" font-size="10.00">fastqc_pe</text>
<text text-anchor="middle" x="53.5" y="-162" font-family="sans" font-size="10.00">group: r1</text>
<text text-anchor="middle" x="53.5" y="-151" font-family="sans" font-size="10.00">pe_sample: sample1</text>
</g>
<!-- 3&#45;&gt;1 -->
<g id="edge6" class="edge">
<title>3&#45;&gt;1</title>
<path fill="none" stroke="grey" stroke-width="2" d="M107.89,-146.23C110.46,-145.46 113.01,-144.72 115.5,-144 171.72,-127.83 237.31,-111.09 278.37,-100.86"/>
<polygon fill="grey" stroke="grey" stroke-width="2" points="279,-104.31 287.86,-98.5 277.31,-97.51 279,-104.31"/>
</g>
<!-- 4 -->
<g id="node5" class="node">
<title>4</title>
<path fill="none" stroke="#567bd8" stroke-width="2" d="M220,-185C220,-185 137,-185 137,-185 131,-185 125,-179 125,-173 125,-173 125,-156 125,-156 125,-150 131,-144 137,-144 137,-144 220,-144 220,-144 226,-144 232,-150 232,-156 232,-156 232,-173 232,-173 232,-179 226,-185 220,-185"/>
<text text-anchor="middle" x="178.5" y="-173" font-family="sans" font-size="10.00">fastqc_pe</text>
<text text-anchor="middle" x="178.5" y="-162" font-family="sans" font-size="10.00">group: r2</text>
<text text-anchor="middle" x="178.5" y="-151" font-family="sans" font-size="10.00">pe_sample: sample1</text>
</g>
<!-- 4&#45;&gt;1 -->
<g id="edge7" class="edge">
<title>4&#45;&gt;1</title>
<path fill="none" stroke="grey" stroke-width="2" d="M217.87,-143.11C237.03,-133.19 259.99,-121.3 279.14,-111.38"/>
<polygon fill="grey" stroke="grey" stroke-width="2" points="280.55,-114.59 287.82,-106.89 277.33,-108.38 280.55,-114.59"/>
</g>
<!-- 5 -->
<g id="node6" class="node">
<title>5</title>
<path fill="none" stroke="#d85656" stroke-width="2" d="M292.5,-182.5C292.5,-182.5 262.5,-182.5 262.5,-182.5 256.5,-182.5 250.5,-176.5 250.5,-170.5 250.5,-170.5 250.5,-158.5 250.5,-158.5 250.5,-152.5 256.5,-146.5 262.5,-146.5 262.5,-146.5 292.5,-146.5 292.5,-146.5 298.5,-146.5 304.5,-152.5 304.5,-158.5 304.5,-158.5 304.5,-170.5 304.5,-170.5 304.5,-176.5 298.5,-182.5 292.5,-182.5"/>
<text text-anchor="middle" x="277.5" y="-162" font-family="sans" font-size="10.00">flagstat</text>
</g>
<!-- 5&#45;&gt;1 -->
<g id="edge8" class="edge">
<title>5&#45;&gt;1</title>
<path fill="none" stroke="grey" stroke-width="2" d="M287.63,-145.58C291.97,-137.91 297.15,-128.76 302.01,-120.16"/>
<polygon fill="grey" stroke="grey" stroke-width="2" points="304.97,-122.03 306.85,-111.6 298.88,-118.58 304.97,-122.03"/>
</g>
<!-- 6 -->
<g id="node7" class="node">
<title>6</title>
<path fill="none" stroke="#d89556" stroke-width="2" d="M470,-257C470,-257 423,-257 423,-257 417,-257 411,-251 411,-245 411,-245 411,-233 411,-233 411,-227 417,-221 423,-221 423,-221 470,-221 470,-221 476,-221 482,-227 482,-233 482,-233 482,-245 482,-245 482,-251 476,-257 470,-257"/>
<text text-anchor="middle" x="446.5" y="-236.5" font-family="sans" font-size="10.00">re_sort_bam</text>
</g>
<!-- 6&#45;&gt;5 -->
<g id="edge10" class="edge">
<title>6&#45;&gt;5</title>
<path fill="none" stroke="grey" stroke-width="2" d="M410.17,-224.84C385.79,-215.72 352.82,-202.85 316.97,-186.41"/>
<polygon fill="grey" stroke="grey" stroke-width="2" points="318.53,-183.27 307.99,-182.22 315.57,-189.62 318.53,-183.27"/>
</g>
<!-- 21 -->
<g id="node22" class="node">
<title>21</title>
<path fill="none" stroke="#56d8d8" stroke-width="2" d="M483,-108C483,-108 414,-108 414,-108 408,-108 402,-102 402,-96 402,-96 402,-84 402,-84 402,-78 408,-72 414,-72 414,-72 483,-72 483,-72 489,-72 495,-78 495,-84 495,-84 495,-96 495,-96 495,-102 489,-108 483,-108"/>
<text text-anchor="middle" x="448.5" y="-87.5" font-family="sans" font-size="10.00">bamcoverage_bw</text>
</g>
<!-- 6&#45;&gt;21 -->
<g id="edge24" class="edge">
<title>6&#45;&gt;21</title>
<path fill="none" stroke="grey" stroke-width="2" d="M446.74,-220.27C447.07,-195.88 447.68,-151.61 448.08,-121.76"/>
<polygon fill="grey" stroke="grey" stroke-width="2" points="451.58,-121.87 448.22,-111.82 444.58,-121.77 451.58,-121.87"/>
</g>
<!-- 23 -->
<g id="node24" class="node">
<title>23</title>
<path fill="none" stroke="#d87556" stroke-width="2" d="M576.5,-182.5C576.5,-182.5 486.5,-182.5 486.5,-182.5 480.5,-182.5 474.5,-176.5 474.5,-170.5 474.5,-170.5 474.5,-158.5 474.5,-158.5 474.5,-152.5 480.5,-146.5 486.5,-146.5 486.5,-146.5 576.5,-146.5 576.5,-146.5 582.5,-146.5 588.5,-152.5 588.5,-158.5 588.5,-158.5 588.5,-170.5 588.5,-170.5 588.5,-176.5 582.5,-182.5 576.5,-182.5"/>
<text text-anchor="middle" x="531.5" y="-167.5" font-family="sans" font-size="10.00">macs2</text>
<text text-anchor="middle" x="531.5" y="-156.5" font-family="sans" font-size="10.00">chip_sample: sample1</text>
</g>
<!-- 6&#45;&gt;23 -->
<g id="edge26" class="edge">
<title>6&#45;&gt;23</title>
<path fill="none" stroke="grey" stroke-width="2" d="M467.51,-220.08C477.52,-211.54 489.69,-201.16 500.72,-191.75"/>
<polygon fill="grey" stroke="grey" stroke-width="2" points="502.8,-194.58 508.13,-185.43 498.25,-189.26 502.8,-194.58"/>
</g>
<!-- 7 -->
<g id="node8" class="node">
<title>7</title>
<path fill="none" stroke="#78d856" stroke-width="2" d="M464,-329C464,-329 429,-329 429,-329 423,-329 417,-323 417,-317 417,-317 417,-305 417,-305 417,-299 423,-293 429,-293 429,-293 464,-293 464,-293 470,-293 476,-299 476,-305 476,-305 476,-317 476,-317 476,-323 470,-329 464,-329"/>
<text text-anchor="middle" x="446.5" y="-308.5" font-family="sans" font-size="10.00">filter_bam</text>
</g>
<!-- 7&#45;&gt;6 -->
<g id="edge11" class="edge">
<title>7&#45;&gt;6</title>
<path fill="none" stroke="grey" stroke-width="2" d="M446.5,-292.34C446.5,-285.75 446.5,-278.08 446.5,-270.67"/>
<polygon fill="grey" stroke="grey" stroke-width="2" points="450,-270.93 446.5,-260.93 443,-270.93 450,-270.93"/>
</g>
<!-- 8 -->
<g id="node9" class="node">
<title>8</title>
<path fill="none" stroke="#b6d856" stroke-width="2" d="M494,-401C494,-401 399,-401 399,-401 393,-401 387,-395 387,-389 387,-389 387,-377 387,-377 387,-371 393,-365 399,-365 399,-365 494,-365 494,-365 500,-365 506,-371 506,-377 506,-377 506,-389 506,-389 506,-395 500,-401 494,-401"/>
<text text-anchor="middle" x="446.5" y="-380.5" font-family="sans" font-size="10.00">remove_blacklist_reads</text>
</g>
<!-- 8&#45;&gt;7 -->
<g id="edge12" class="edge">
<title>8&#45;&gt;7</title>
<path fill="none" stroke="grey" stroke-width="2" d="M446.5,-364.34C446.5,-357.75 446.5,-350.08 446.5,-342.67"/>
<polygon fill="grey" stroke="grey" stroke-width="2" points="450,-342.93 446.5,-332.93 443,-342.93 450,-342.93"/>
</g>
<!-- 9 -->
<g id="node10" class="node">
<title>9</title>
<path fill="none" stroke="#56d87b" stroke-width="2" d="M461.5,-473C461.5,-473 431.5,-473 431.5,-473 425.5,-473 419.5,-467 419.5,-461 419.5,-461 419.5,-449 419.5,-449 419.5,-443 425.5,-437 431.5,-437 431.5,-437 461.5,-437 461.5,-437 467.5,-437 473.5,-443 473.5,-449 473.5,-449 473.5,-461 473.5,-461 473.5,-467 467.5,-473 461.5,-473"/>
<text text-anchor="middle" x="446.5" y="-452.5" font-family="sans" font-size="10.00">remdup</text>
</g>
<!-- 9&#45;&gt;8 -->
<g id="edge13" class="edge">
<title>9&#45;&gt;8</title>
<path fill="none" stroke="grey" stroke-width="2" d="M446.5,-436.34C446.5,-429.75 446.5,-422.08 446.5,-414.67"/>
<polygon fill="grey" stroke="grey" stroke-width="2" points="450,-414.93 446.5,-404.93 443,-414.93 450,-414.93"/>
</g>
<!-- 10 -->
<g id="node11" class="node">
<title>10</title>
<path fill="none" stroke="#56d89a" stroke-width="2" d="M461.5,-545C461.5,-545 431.5,-545 431.5,-545 425.5,-545 419.5,-539 419.5,-533 419.5,-533 419.5,-521 419.5,-521 419.5,-515 425.5,-509 431.5,-509 431.5,-509 461.5,-509 461.5,-509 467.5,-509 473.5,-515 473.5,-521 473.5,-521 473.5,-533 473.5,-533 473.5,-539 467.5,-545 461.5,-545"/>
<text text-anchor="middle" x="446.5" y="-524.5" font-family="sans" font-size="10.00">sortbam</text>
</g>
<!-- 10&#45;&gt;9 -->
<g id="edge14" class="edge">
<title>10&#45;&gt;9</title>
<path fill="none" stroke="grey" stroke-width="2" d="M446.5,-508.34C446.5,-501.75 446.5,-494.08 446.5,-486.67"/>
<polygon fill="grey" stroke="grey" stroke-width="2" points="450,-486.93 446.5,-476.93 443,-486.93 450,-486.93"/>
</g>
<!-- 11 -->
<g id="node12" class="node">
<title>11</title>
<path fill="none" stroke="#56d8b9" stroke-width="2" d="M461.5,-617C461.5,-617 431.5,-617 431.5,-617 425.5,-617 419.5,-611 419.5,-605 419.5,-605 419.5,-593 419.5,-593 419.5,-587 425.5,-581 431.5,-581 431.5,-581 461.5,-581 461.5,-581 467.5,-581 473.5,-587 473.5,-593 473.5,-593 473.5,-605 473.5,-605 473.5,-611 467.5,-617 461.5,-617"/>
<text text-anchor="middle" x="446.5" y="-596.5" font-family="sans" font-size="10.00">bowtie2</text>
</g>
<!-- 11&#45;&gt;10 -->
<g id="edge15" class="edge">
<title>11&#45;&gt;10</title>
<path fill="none" stroke="grey" stroke-width="2" d="M446.5,-580.34C446.5,-573.75 446.5,-566.08 446.5,-558.67"/>
<polygon fill="grey" stroke="grey" stroke-width="2" points="450,-558.93 446.5,-548.93 443,-558.93 450,-558.93"/>
</g>
<!-- 12 -->
<g id="node13" class="node">
<title>12</title>
<path fill="none" stroke="#59d856" stroke-width="2" d="M480,-689C480,-689 413,-689 413,-689 407,-689 401,-683 401,-677 401,-677 401,-665 401,-665 401,-659 407,-653 413,-653 413,-653 480,-653 480,-653 486,-653 492,-659 492,-665 492,-665 492,-677 492,-677 492,-683 486,-689 480,-689"/>
<text text-anchor="middle" x="446.5" y="-674" font-family="sans" font-size="10.00">trimgalore_pe</text>
<text text-anchor="middle" x="446.5" y="-663" font-family="sans" font-size="10.00">sample: sample1</text>
</g>
<!-- 12&#45;&gt;11 -->
<g id="edge16" class="edge">
<title>12&#45;&gt;11</title>
<path fill="none" stroke="grey" stroke-width="2" d="M446.5,-652.34C446.5,-645.75 446.5,-638.08 446.5,-630.67"/>
<polygon fill="grey" stroke="grey" stroke-width="2" points="450,-630.93 446.5,-620.93 443,-630.93 450,-630.93"/>
</g>
<!-- 13 -->
<g id="node14" class="node">
<title>13</title>
<path fill="none" stroke="#d85656" stroke-width="2" d="M648.5,-182.5C648.5,-182.5 618.5,-182.5 618.5,-182.5 612.5,-182.5 606.5,-176.5 606.5,-170.5 606.5,-170.5 606.5,-158.5 606.5,-158.5 606.5,-152.5 612.5,-146.5 618.5,-146.5 618.5,-146.5 648.5,-146.5 648.5,-146.5 654.5,-146.5 660.5,-152.5 660.5,-158.5 660.5,-158.5 660.5,-170.5 660.5,-170.5 660.5,-176.5 654.5,-182.5 648.5,-182.5"/>
<text text-anchor="middle" x="633.5" y="-162" font-family="sans" font-size="10.00">flagstat</text>
</g>
<!-- 13&#45;&gt;1 -->
<g id="edge9" class="edge">
<title>13&#45;&gt;1</title>
<path fill="none" stroke="grey" stroke-width="2" d="M605.6,-147.28C602.91,-146.05 600.19,-144.94 597.5,-144 510.14,-113.58 483.16,-126.36 392.5,-108 381.45,-105.76 369.52,-103.12 358.54,-100.6"/>
<polygon fill="grey" stroke="grey" stroke-width="2" points="359.67,-97.27 349.13,-98.41 358.08,-104.08 359.67,-97.27"/>
</g>
<!-- 14 -->
<g id="node15" class="node">
<title>14</title>
<path fill="none" stroke="#d89556" stroke-width="2" d="M657,-257C657,-257 610,-257 610,-257 604,-257 598,-251 598,-245 598,-245 598,-233 598,-233 598,-227 604,-221 610,-221 610,-221 657,-221 657,-221 663,-221 669,-227 669,-233 669,-233 669,-245 669,-245 669,-251 663,-257 657,-257"/>
<text text-anchor="middle" x="633.5" y="-236.5" font-family="sans" font-size="10.00">re_sort_bam</text>
</g>
<!-- 14&#45;&gt;13 -->
<g id="edge17" class="edge">
<title>14&#45;&gt;13</title>
<path fill="none" stroke="grey" stroke-width="2" d="M633.5,-220.08C633.5,-212.93 633.5,-204.5 633.5,-196.42"/>
<polygon fill="grey" stroke="grey" stroke-width="2" points="637,-196.49 633.5,-186.49 630,-196.49 637,-196.49"/>
</g>
<!-- 22 -->
<g id="node23" class="node">
<title>22</title>
<path fill="none" stroke="#56d8d8" stroke-width="2" d="M681,-108C681,-108 612,-108 612,-108 606,-108 600,-102 600,-96 600,-96 600,-84 600,-84 600,-78 606,-72 612,-72 612,-72 681,-72 681,-72 687,-72 693,-78 693,-84 693,-84 693,-96 693,-96 693,-102 687,-108 681,-108"/>
<text text-anchor="middle" x="646.5" y="-87.5" font-family="sans" font-size="10.00">bamcoverage_bw</text>
</g>
<!-- 14&#45;&gt;22 -->
<g id="edge25" class="edge">
<title>14&#45;&gt;22</title>
<path fill="none" stroke="grey" stroke-width="2" d="M649.49,-220.3C657.15,-210.62 665.51,-197.97 669.5,-185 676.04,-163.73 669.66,-139.31 661.97,-120.69"/>
<polygon fill="grey" stroke="grey" stroke-width="2" points="665.16,-119.25 657.84,-111.6 658.79,-122.15 665.16,-119.25"/>
</g>
<!-- 14&#45;&gt;23 -->
<g id="edge27" class="edge">
<title>14&#45;&gt;23</title>
<path fill="none" stroke="grey" stroke-width="2" d="M608.29,-220.08C595.9,-211.28 580.77,-200.52 567.22,-190.89"/>
<polygon fill="grey" stroke="grey" stroke-width="2" points="569.42,-188.16 559.24,-185.22 565.37,-193.87 569.42,-188.16"/>
</g>
<!-- 15 -->
<g id="node16" class="node">
<title>15</title>
<path fill="none" stroke="#78d856" stroke-width="2" d="M651,-329C651,-329 616,-329 616,-329 610,-329 604,-323 604,-317 604,-317 604,-305 604,-305 604,-299 610,-293 616,-293 616,-293 651,-293 651,-293 657,-293 663,-299 663,-305 663,-305 663,-317 663,-317 663,-323 657,-329 651,-329"/>
<text text-anchor="middle" x="633.5" y="-308.5" font-family="sans" font-size="10.00">filter_bam</text>
</g>
<!-- 15&#45;&gt;14 -->
<g id="edge18" class="edge">
<title>15&#45;&gt;14</title>
<path fill="none" stroke="grey" stroke-width="2" d="M633.5,-292.34C633.5,-285.75 633.5,-278.08 633.5,-270.67"/>
<polygon fill="grey" stroke="grey" stroke-width="2" points="637,-270.93 633.5,-260.93 630,-270.93 637,-270.93"/>
</g>
<!-- 16 -->
<g id="node17" class="node">
<title>16</title>
<path fill="none" stroke="#b6d856" stroke-width="2" d="M681,-401C681,-401 586,-401 586,-401 580,-401 574,-395 574,-389 574,-389 574,-377 574,-377 574,-371 580,-365 586,-365 586,-365 681,-365 681,-365 687,-365 693,-371 693,-377 693,-377 693,-389 693,-389 693,-395 687,-401 681,-401"/>
<text text-anchor="middle" x="633.5" y="-380.5" font-family="sans" font-size="10.00">remove_blacklist_reads</text>
</g>
<!-- 16&#45;&gt;15 -->
<g id="edge19" class="edge">
<title>16&#45;&gt;15</title>
<path fill="none" stroke="grey" stroke-width="2" d="M633.5,-364.34C633.5,-357.75 633.5,-350.08 633.5,-342.67"/>
<polygon fill="grey" stroke="grey" stroke-width="2" points="637,-342.93 633.5,-332.93 630,-342.93 637,-342.93"/>
</g>
<!-- 17 -->
<g id="node18" class="node">
<title>17</title>
<path fill="none" stroke="#56d87b" stroke-width="2" d="M648.5,-473C648.5,-473 618.5,-473 618.5,-473 612.5,-473 606.5,-467 606.5,-461 606.5,-461 606.5,-449 606.5,-449 606.5,-443 612.5,-437 618.5,-437 618.5,-437 648.5,-437 648.5,-437 654.5,-437 660.5,-443 660.5,-449 660.5,-449 660.5,-461 660.5,-461 660.5,-467 654.5,-473 648.5,-473"/>
<text text-anchor="middle" x="633.5" y="-452.5" font-family="sans" font-size="10.00">remdup</text>
</g>
<!-- 17&#45;&gt;16 -->
<g id="edge20" class="edge">
<title>17&#45;&gt;16</title>
<path fill="none" stroke="grey" stroke-width="2" d="M633.5,-436.34C633.5,-429.75 633.5,-422.08 633.5,-414.67"/>
<polygon fill="grey" stroke="grey" stroke-width="2" points="637,-414.93 633.5,-404.93 630,-414.93 637,-414.93"/>
</g>
<!-- 18 -->
<g id="node19" class="node">
<title>18</title>
<path fill="none" stroke="#56d89a" stroke-width="2" d="M648.5,-545C648.5,-545 618.5,-545 618.5,-545 612.5,-545 606.5,-539 606.5,-533 606.5,-533 606.5,-521 606.5,-521 606.5,-515 612.5,-509 618.5,-509 618.5,-509 648.5,-509 648.5,-509 654.5,-509 660.5,-515 660.5,-521 660.5,-521 660.5,-533 660.5,-533 660.5,-539 654.5,-545 648.5,-545"/>
<text text-anchor="middle" x="633.5" y="-524.5" font-family="sans" font-size="10.00">sortbam</text>
</g>
<!-- 18&#45;&gt;17 -->
<g id="edge21" class="edge">
<title>18&#45;&gt;17</title>
<path fill="none" stroke="grey" stroke-width="2" d="M633.5,-508.34C633.5,-501.75 633.5,-494.08 633.5,-486.67"/>
<polygon fill="grey" stroke="grey" stroke-width="2" points="637,-486.93 633.5,-476.93 630,-486.93 637,-486.93"/>
</g>
<!-- 19 -->
<g id="node20" class="node">
<title>19</title>
<path fill="none" stroke="#569ad8" stroke-width="2" d="M648.5,-617C648.5,-617 618.5,-617 618.5,-617 612.5,-617 606.5,-611 606.5,-605 606.5,-605 606.5,-593 606.5,-593 606.5,-587 612.5,-581 618.5,-581 618.5,-581 648.5,-581 648.5,-581 654.5,-581 660.5,-587 660.5,-593 660.5,-593 660.5,-605 660.5,-605 660.5,-611 654.5,-617 648.5,-617"/>
<text text-anchor="middle" x="633.5" y="-596.5" font-family="sans" font-size="10.00">bowtie</text>
</g>
<!-- 19&#45;&gt;18 -->
<g id="edge22" class="edge">
<title>19&#45;&gt;18</title>
<path fill="none" stroke="grey" stroke-width="2" d="M633.5,-580.34C633.5,-573.75 633.5,-566.08 633.5,-558.67"/>
<polygon fill="grey" stroke="grey" stroke-width="2" points="637,-558.93 633.5,-548.93 630,-558.93 637,-558.93"/>
</g>
<!-- 20 -->
<g id="node21" class="node">
<title>20</title>
<path fill="none" stroke="#d6d856" stroke-width="2" d="M661.5,-689C661.5,-689 605.5,-689 605.5,-689 599.5,-689 593.5,-683 593.5,-677 593.5,-677 593.5,-665 593.5,-665 593.5,-659 599.5,-653 605.5,-653 605.5,-653 661.5,-653 661.5,-653 667.5,-653 673.5,-659 673.5,-665 673.5,-665 673.5,-677 673.5,-677 673.5,-683 667.5,-689 661.5,-689"/>
<text text-anchor="middle" x="633.5" y="-674" font-family="sans" font-size="10.00">trimgalore_se</text>
<text text-anchor="middle" x="633.5" y="-663" font-family="sans" font-size="10.00">sample: input1</text>
</g>
<!-- 20&#45;&gt;19 -->
<g id="edge23" class="edge">
<title>20&#45;&gt;19</title>
<path fill="none" stroke="grey" stroke-width="2" d="M633.5,-652.34C633.5,-645.75 633.5,-638.08 633.5,-630.67"/>
<polygon fill="grey" stroke="grey" stroke-width="2" points="637,-630.93 633.5,-620.93 630,-630.93 637,-630.93"/>
</g>
<!-- 21&#45;&gt;0 -->
<g id="edge2" class="edge">
<title>21&#45;&gt;0</title>
<path fill="none" stroke="grey" stroke-width="2" d="M458.59,-71.34C462.64,-64.26 467.4,-55.92 471.93,-48"/>
<polygon fill="grey" stroke="grey" stroke-width="2" points="474.85,-49.95 476.77,-39.53 468.77,-46.48 474.85,-49.95"/>
</g>
<!-- 22&#45;&gt;0 -->
<g id="edge3" class="edge">
<title>22&#45;&gt;0</title>
<path fill="none" stroke="grey" stroke-width="2" d="M606.22,-71.15C582.24,-60.53 551.94,-47.11 528.08,-36.54"/>
<polygon fill="grey" stroke="grey" stroke-width="2" points="529.59,-33.38 519.03,-32.53 526.75,-39.78 529.59,-33.38"/>
</g>
<!-- 23&#45;&gt;0 -->
<g id="edge4" class="edge">
<title>23&#45;&gt;0</title>
<path fill="none" stroke="grey" stroke-width="2" d="M526.23,-145.78C519.07,-121.73 506.18,-78.41 497.48,-49.18"/>
<polygon fill="grey" stroke="grey" stroke-width="2" points="500.89,-48.35 494.68,-39.76 494.18,-50.35 500.89,-48.35"/>
</g>
</g>
</svg>
