<?xml version="1.0" encoding="UTF-8" standalone="no"?>
<!DOCTYPE svg PUBLIC "-//W3C//DTD SVG 1.1//EN"
 "http://www.w3.org/Graphics/SVG/1.1/DTD/svg11.dtd">
<!-- Generated by graphviz version 2.38.0 (20140413.2041)
 -->
<!-- Title: snakemake_dag Pages: 1 -->
<svg width="293pt" height="548pt"
 viewBox="0.00 0.00 293.00 548.00" xmlns="http://www.w3.org/2000/svg" xmlns:xlink="http://www.w3.org/1999/xlink">
<g id="graph0" class="graph" transform="scale(1 1) rotate(0) translate(4 544)">
<title>snakemake_dag</title>
<polygon fill="white" stroke="none" points="-4,4 -4,-544 289,-544 289,4 -4,4"/>
<!-- 0 -->
<g id="node1" class="node"><title>0</title>
<path fill="none" stroke="#d88556" stroke-width="2" d="M125,-36C125,-36 95,-36 95,-36 89,-36 83,-30 83,-24 83,-24 83,-12 83,-12 83,-6 89,-0 95,-0 95,-0 125,-0 125,-0 131,-0 137,-6 137,-12 137,-12 137,-24 137,-24 137,-30 131,-36 125,-36"/>
<text text-anchor="middle" x="110" y="-15.5" font-family="sans" font-size="10.00">all</text>
</g>
<!-- 1 -->
<g id="node2" class="node"><title>1</title>
<path fill="none" stroke="#5682d8" stroke-width="2" d="M130.5,-180C130.5,-180 89.5,-180 89.5,-180 83.5,-180 77.5,-174 77.5,-168 77.5,-168 77.5,-156 77.5,-156 77.5,-150 83.5,-144 89.5,-144 89.5,-144 130.5,-144 130.5,-144 136.5,-144 142.5,-150 142.5,-156 142.5,-156 142.5,-168 142.5,-168 142.5,-174 136.5,-180 130.5,-180"/>
<text text-anchor="middle" x="110" y="-159.5" font-family="sans" font-size="10.00">blklist_filt</text>
</g>
<!-- 1&#45;&gt;0 -->
<g id="edge2" class="edge"><title>1&#45;&gt;0</title>
<path fill="none" stroke="grey" stroke-width="2" d="M110,-143.871C110,-119.67 110,-75.2108 110,-46.3932"/>
<polygon fill="grey" stroke="grey" stroke-width="2" points="113.5,-46.1892 110,-36.1893 106.5,-46.1893 113.5,-46.1892"/>
</g>
<!-- 2 -->
<g id="node3" class="node"><title>2</title>
<path fill="none" stroke="#d85656" stroke-width="2" d="M186.5,-108C186.5,-108 155.5,-108 155.5,-108 149.5,-108 143.5,-102 143.5,-96 143.5,-96 143.5,-84 143.5,-84 143.5,-78 149.5,-72 155.5,-72 155.5,-72 186.5,-72 186.5,-72 192.5,-72 198.5,-78 198.5,-84 198.5,-84 198.5,-96 198.5,-96 198.5,-102 192.5,-108 186.5,-108"/>
<text text-anchor="middle" x="171" y="-87.5" font-family="sans" font-size="10.00">bdg2bw</text>
</g>
<!-- 2&#45;&gt;0 -->
<g id="edge1" class="edge"><title>2&#45;&gt;0</title>
<path fill="none" stroke="grey" stroke-width="2" d="M155.921,-71.6966C148.608,-63.3046 139.69,-53.0705 131.665,-43.8613"/>
<polygon fill="grey" stroke="grey" stroke-width="2" points="134.114,-41.344 124.905,-36.1043 128.836,-45.9429 134.114,-41.344"/>
</g>
<!-- 3 -->
<g id="node4" class="node"><title>3</title>
<path fill="none" stroke="#56a9d8" stroke-width="2" d="M64,-252C64,-252 34,-252 34,-252 28,-252 22,-246 22,-240 22,-240 22,-228 22,-228 22,-222 28,-216 34,-216 34,-216 64,-216 64,-216 70,-216 76,-222 76,-228 76,-228 76,-240 76,-240 76,-246 70,-252 64,-252"/>
<text text-anchor="middle" x="49" y="-231.5" font-family="sans" font-size="10.00">multiqc</text>
</g>
<!-- 3&#45;&gt;0 -->
<g id="edge3" class="edge"><title>3&#45;&gt;0</title>
<path fill="none" stroke="grey" stroke-width="2" d="M52.07,-215.799C55.4279,-197.77 61.2411,-168.687 68,-144 77.4047,-109.649 90.8889,-70.8876 100.022,-45.7608"/>
<polygon fill="grey" stroke="grey" stroke-width="2" points="103.371,-46.7924 103.527,-36.1987 96.7987,-44.3832 103.371,-46.7924"/>
</g>
<!-- 4 -->
<g id="node5" class="node"><title>4</title>
<path fill="none" stroke="#80d856" stroke-width="2" d="M186,-324C186,-324 156,-324 156,-324 150,-324 144,-318 144,-312 144,-312 144,-300 144,-300 144,-294 150,-288 156,-288 156,-288 186,-288 186,-288 192,-288 198,-294 198,-300 198,-300 198,-312 198,-312 198,-318 192,-324 186,-324"/>
<text text-anchor="middle" x="171" y="-303.5" font-family="sans" font-size="10.00">macs2</text>
</g>
<!-- 4&#45;&gt;1 -->
<g id="edge4" class="edge"><title>4&#45;&gt;1</title>
<path fill="none" stroke="grey" stroke-width="2" d="M163.642,-287.871C153.154,-263.457 133.81,-218.426 121.442,-189.635"/>
<polygon fill="grey" stroke="grey" stroke-width="2" points="124.547,-187.996 117.384,-180.189 118.115,-190.759 124.547,-187.996"/>
</g>
<!-- 4&#45;&gt;2 -->
<g id="edge6" class="edge"><title>4&#45;&gt;2</title>
<path fill="none" stroke="grey" stroke-width="2" d="M171,-287.849C171,-250.832 171,-163.181 171,-118.386"/>
<polygon fill="grey" stroke="grey" stroke-width="2" points="174.5,-118.232 171,-108.232 167.5,-118.232 174.5,-118.232"/>
</g>
<!-- 9 -->
<g id="node10" class="node"><title>9</title>
<path fill="none" stroke="#afd856" stroke-width="2" d="M273,-252C273,-252 211,-252 211,-252 205,-252 199,-246 199,-240 199,-240 199,-228 199,-228 199,-222 205,-216 211,-216 211,-216 273,-216 273,-216 279,-216 285,-222 285,-228 285,-228 285,-240 285,-240 285,-246 279,-252 273,-252"/>
<text text-anchor="middle" x="242" y="-231.5" font-family="sans" font-size="10.00">subtract_input</text>
</g>
<!-- 4&#45;&gt;9 -->
<g id="edge13" class="edge"><title>4&#45;&gt;9</title>
<path fill="none" stroke="grey" stroke-width="2" d="M188.551,-287.697C197.234,-279.135 207.863,-268.656 217.348,-259.304"/>
<polygon fill="grey" stroke="grey" stroke-width="2" points="219.988,-261.617 224.651,-252.104 215.073,-256.633 219.988,-261.617"/>
</g>
<!-- 5 -->
<g id="node6" class="node"><title>5</title>
<path fill="none" stroke="#59d856" stroke-width="2" d="M266.5,-180C266.5,-180 213.5,-180 213.5,-180 207.5,-180 201.5,-174 201.5,-168 201.5,-168 201.5,-156 201.5,-156 201.5,-150 207.5,-144 213.5,-144 213.5,-144 266.5,-144 266.5,-144 272.5,-144 278.5,-150 278.5,-156 278.5,-156 278.5,-168 278.5,-168 278.5,-174 272.5,-180 266.5,-180"/>
<text text-anchor="middle" x="240" y="-159.5" font-family="sans" font-size="10.00">fix_neg_vals</text>
</g>
<!-- 5&#45;&gt;2 -->
<g id="edge5" class="edge"><title>5&#45;&gt;2</title>
<path fill="none" stroke="grey" stroke-width="2" d="M222.944,-143.697C214.505,-135.135 204.175,-124.656 194.957,-115.304"/>
<polygon fill="grey" stroke="grey" stroke-width="2" points="197.373,-112.769 187.86,-108.104 192.387,-117.683 197.373,-112.769"/>
</g>
<!-- 6 -->
<g id="node7" class="node"><title>6</title>
<path fill="none" stroke="#56d882" stroke-width="2" d="M42,-324C42,-324 12,-324 12,-324 6,-324 0,-318 0,-312 0,-312 0,-300 0,-300 0,-294 6,-288 12,-288 12,-288 42,-288 42,-288 48,-288 54,-294 54,-300 54,-300 54,-312 54,-312 54,-318 48,-324 42,-324"/>
<text text-anchor="middle" x="27" y="-303.5" font-family="sans" font-size="10.00">fastqc</text>
</g>
<!-- 6&#45;&gt;3 -->
<g id="edge7" class="edge"><title>6&#45;&gt;3</title>
<path fill="none" stroke="grey" stroke-width="2" d="M32.4382,-287.697C34.8892,-279.898 37.8402,-270.509 40.568,-261.829"/>
<polygon fill="grey" stroke="grey" stroke-width="2" points="43.965,-262.694 43.6244,-252.104 37.287,-260.595 43.965,-262.694"/>
</g>
<!-- 7 -->
<g id="node8" class="node"><title>7</title>
<path fill="none" stroke="#d8ac56" stroke-width="2" d="M114,-324C114,-324 84,-324 84,-324 78,-324 72,-318 72,-312 72,-312 72,-300 72,-300 72,-294 78,-288 84,-288 84,-288 114,-288 114,-288 120,-288 126,-294 126,-300 126,-300 126,-312 126,-312 126,-318 120,-324 114,-324"/>
<text text-anchor="middle" x="99" y="-303.5" font-family="sans" font-size="10.00">flagstat</text>
</g>
<!-- 7&#45;&gt;3 -->
<g id="edge8" class="edge"><title>7&#45;&gt;3</title>
<path fill="none" stroke="grey" stroke-width="2" d="M86.6404,-287.697C80.7672,-279.474 73.6309,-269.483 67.1576,-260.421"/>
<polygon fill="grey" stroke="grey" stroke-width="2" points="69.8779,-258.207 61.2174,-252.104 64.1817,-262.276 69.8779,-258.207"/>
</g>
<!-- 8 -->
<g id="node9" class="node"><title>8</title>
<path fill="none" stroke="#56d8d8" stroke-width="2" d="M150,-396C150,-396 120,-396 120,-396 114,-396 108,-390 108,-384 108,-384 108,-372 108,-372 108,-366 114,-360 120,-360 120,-360 150,-360 150,-360 156,-360 162,-366 162,-372 162,-372 162,-384 162,-384 162,-390 156,-396 150,-396"/>
<text text-anchor="middle" x="135" y="-375.5" font-family="sans" font-size="10.00">remdup</text>
</g>
<!-- 8&#45;&gt;4 -->
<g id="edge9" class="edge"><title>8&#45;&gt;4</title>
<path fill="none" stroke="grey" stroke-width="2" d="M143.899,-359.697C147.997,-351.728 152.949,-342.1 157.493,-333.264"/>
<polygon fill="grey" stroke="grey" stroke-width="2" points="160.742,-334.598 162.203,-324.104 154.517,-331.396 160.742,-334.598"/>
</g>
<!-- 8&#45;&gt;7 -->
<g id="edge11" class="edge"><title>8&#45;&gt;7</title>
<path fill="none" stroke="grey" stroke-width="2" d="M126.101,-359.697C122.003,-351.728 117.051,-342.1 112.507,-333.264"/>
<polygon fill="grey" stroke="grey" stroke-width="2" points="115.483,-331.396 107.797,-324.104 109.258,-334.598 115.483,-331.396"/>
</g>
<!-- 9&#45;&gt;5 -->
<g id="edge10" class="edge"><title>9&#45;&gt;5</title>
<path fill="none" stroke="grey" stroke-width="2" d="M241.506,-215.697C241.285,-207.983 241.02,-198.712 240.775,-190.112"/>
<polygon fill="grey" stroke="grey" stroke-width="2" points="244.273,-190 240.489,-180.104 237.276,-190.2 244.273,-190"/>
</g>
<!-- 10 -->
<g id="node11" class="node"><title>10</title>
<path fill="none" stroke="#d6d856" stroke-width="2" d="M150,-468C150,-468 120,-468 120,-468 114,-468 108,-462 108,-456 108,-456 108,-444 108,-444 108,-438 114,-432 120,-432 120,-432 150,-432 150,-432 156,-432 162,-438 162,-444 162,-444 162,-456 162,-456 162,-462 156,-468 150,-468"/>
<text text-anchor="middle" x="135" y="-447.5" font-family="sans" font-size="10.00">bowtie</text>
</g>
<!-- 10&#45;&gt;8 -->
<g id="edge12" class="edge"><title>10&#45;&gt;8</title>
<path fill="none" stroke="grey" stroke-width="2" d="M135,-431.697C135,-423.983 135,-414.712 135,-406.112"/>
<polygon fill="grey" stroke="grey" stroke-width="2" points="138.5,-406.104 135,-396.104 131.5,-406.104 138.5,-406.104"/>
</g>
<!-- 11 -->
<g id="node12" class="node"><title>11</title>
<path fill="none" stroke="#56d8a9" stroke-width="2" d="M157,-540C157,-540 113,-540 113,-540 107,-540 101,-534 101,-528 101,-528 101,-516 101,-516 101,-510 107,-504 113,-504 113,-504 157,-504 157,-504 163,-504 169,-510 169,-516 169,-516 169,-528 169,-528 169,-534 163,-540 157,-540"/>
<text text-anchor="middle" x="135" y="-519.5" font-family="sans" font-size="10.00">trimgalore</text>
</g>
<!-- 11&#45;&gt;10 -->
<g id="edge14" class="edge"><title>11&#45;&gt;10</title>
<path fill="none" stroke="grey" stroke-width="2" d="M135,-503.697C135,-495.983 135,-486.712 135,-478.112"/>
<polygon fill="grey" stroke="grey" stroke-width="2" points="138.5,-478.104 135,-468.104 131.5,-478.104 138.5,-478.104"/>
</g>
</g>
</svg>
